<?xml version="1.0" encoding="utf-8"?>
<!-- Generator: Adobe Illustrator 23.0.1, SVG Export Plug-In . SVG Version: 6.00 Build 0)  -->
<svg version="1.1" id="Laag_1" xmlns="http://www.w3.org/2000/svg" xmlns:xlink="http://www.w3.org/1999/xlink" x="0px" y="0px"
	 viewBox="0 0 52.3 52.3" style="enable-background:new 0 0 52.3 52.3;" xml:space="preserve">
<style type="text/css">
	.st0{fill:#FFFFFF;stroke:#000000;stroke-miterlimit:10;}
	.st1{fill:#161615;}
</style>
<rect x="10.5" y="13.9" class="st0" width="31.3" height="26.3"/>
<g id="Group_5" transform="translate(-15.068 -1.06)">
	<path id="Path_15" class="st1" d="M34.8,18.9h-1l-0.4,2.6h0.7c0.5,0,0.9-0.1,1.4-0.3c0.4-0.3,0.6-0.8,0.5-1.3
		c0-0.3-0.1-0.5-0.3-0.7C35.4,19,35.1,18.9,34.8,18.9"/>
	<path id="Path_16" class="st1" d="M44.8,22.9l-1.9,4l-1.2,2.5h4.2l-0.4-2.5L44.8,22.9z"/>
	<path id="Path_17" class="st1" d="M41.2,1.1c-14.4,0-26.2,11.7-26.2,26.2s11.7,26.2,26.2,26.2c14.4,0,26.2-11.7,26.2-26.2
		c0,0,0,0,0,0C67.4,12.8,55.7,1.1,41.2,1.1 M47.2,37.8l-0.7-4.4h-6.8l-2.1,4.4h-5.6l5.5-10.1h-2.7l-1.1-4.1l-0.6,0l-0.6,4.1h-2.8
		l1.7-11h3.6c0.5,0,1,0,1.5,0.1c0.4,0.1,0.8,0.2,1.2,0.4c0.4,0.2,0.7,0.5,0.9,0.9c0.2,0.4,0.3,0.9,0.3,1.3c0,2-0.9,3.3-2.6,3.8
		l1.5,3.9l5.8-10.5H48l4.8,21.1L47.2,37.8z"/>
</g>
</svg>
